<?xml version="1.0" standalone="no"?>
<!DOCTYPE svg PUBLIC "-//W3C//DTD SVG 20010904//EN"
 "http://www.w3.org/TR/2001/REC-SVG-20010904/DTD/svg10.dtd">
<svg version="1.0" xmlns="http://www.w3.org/2000/svg"
 width="900.000000pt" height="900.000000pt" viewBox="0 0 900.000000 900.000000"
 preserveAspectRatio="xMidYMid meet">
<metadata>
Created by potrace 1.14, written by Peter Selinger 2001-2017
</metadata>
<g transform="translate(0.000000,900.000000) scale(0.100000,-0.100000)"
fill="#000000" stroke="none">
<path d="M0 4500 l0 -4500 4500 0 4500 0 0 4500 0 4500 -4500 0 -4500 0 0
-4500z m5010 3655 c476 -54 862 -170 1303 -391 383 -192 708 -426 1007 -724
450 -448 753 -934 955 -1530 144 -422 194 -732 196 -1200 2 -500 -63 -893
-214 -1305 -380 -1032 -1197 -1825 -2282 -2213 -315 -113 -520 -161 -900 -213
-214 -29 -673 -32 -895 -6 -379 45 -575 87 -858 183 -607 205 -1103 506 -1516
920 -285 286 -504 588 -682 944 -200 400 -306 749 -360 1185 -22 178 -30 682
-15 868 38 446 174 910 398 1357 462 922 1237 1594 2242 1944 267 93 576 162
816 182 44 3 82 8 84 10 13 12 599 2 721 -11z"/>
<path d="M4325 7963 c-337 -29 -695 -113 -1015 -240 -493 -194 -852 -424
-1217 -777 -497 -481 -842 -1083 -1008 -1756 -62 -253 -85 -461 -85 -772 0
-303 38 -529 140 -836 222 -671 624 -1217 1260 -1709 77 -59 311 -211 427
-277 256 -144 666 -298 958 -359 464 -98 935 -112 1387 -42 284 44 643 143
708 195 32 25 64 39 104 45 46 6 161 56 322 140 593 309 1073 741 1411 1270
207 323 382 754 447 1104 25 133 26 131 -36 125 -57 -5 -144 -28 -167 -43 -11
-7 -10 -20 8 -77 11 -37 21 -84 21 -103 0 -55 -43 -110 -87 -111 -12 0 -24 -8
-28 -19 -16 -51 -93 -78 -157 -56 -36 12 -39 12 -32 -3 41 -99 60 -208 46
-267 l-10 -40 -1 36 c-1 41 -34 145 -63 204 -36 71 -124 178 -202 247 -83 73
-133 95 -244 107 l-67 7 40 21 c42 22 127 43 174 43 22 0 35 -10 62 -47 45
-63 64 -86 128 -155 42 -45 58 -57 76 -52 15 4 31 -4 54 -25 62 -58 161 -37
161 35 0 21 4 23 24 18 71 -18 85 50 36 183 l-29 81 87 32 c64 23 116 34 202
41 71 6 124 16 138 25 44 29 73 134 52 185 -16 37 -44 49 -85 38 -76 -22 -399
-2 -417 25 -4 6 -8 29 -8 51 0 56 -20 127 -88 317 -38 104 -71 219 -91 317
-32 152 -72 274 -126 382 -68 134 -205 298 -356 425 -67 57 -77 70 -83 107 -4
23 -16 62 -28 86 -17 35 -18 45 -7 51 11 7 9 17 -10 50 -19 34 -21 43 -10 57
11 13 10 19 -12 37 -15 11 -29 33 -33 49 -5 20 -13 27 -29 27 -20 0 -23 4 -19
33 2 24 -2 35 -17 44 -17 11 -26 9 -56 -11 l-36 -25 36 -28 c35 -28 45 -57 23
-67 -16 -6 27 -46 48 -46 19 0 18 -14 -2 -31 -14 -11 -11 -16 22 -45 33 -27
37 -34 25 -47 -11 -14 -8 -22 19 -56 28 -34 31 -45 26 -78 -12 -75 -12 -77 19
-92 84 -40 262 -212 351 -339 98 -140 174 -318 194 -453 27 -181 32 -205 55
-243 46 -81 137 -396 134 -466 -1 -26 -39 71 -71 180 -35 121 -86 260 -101
275 -7 7 -8 6 -3 -2 4 -7 2 -13 -3 -13 -6 0 -11 5 -11 12 0 6 -3 9 -6 5 -4 -3
-15 4 -25 16 -18 20 -18 18 2 -33 44 -114 52 -139 100 -314 51 -187 55 -206
40 -206 -18 0 -50 87 -76 205 -40 176 -98 330 -125 330 -8 0 -16 -10 -18 -22
-4 -25 63 -356 84 -415 22 -62 18 -78 -11 -45 -27 30 -40 73 -74 237 -28 133
-58 225 -78 242 -10 8 -18 9 -20 3 -2 -5 -12 -28 -23 -50 l-20 -40 6 119 c5
87 4 117 -5 112 -6 -4 -11 -15 -11 -25 0 -18 -51 -104 -69 -115 -6 -4 -4 15 5
45 9 28 15 76 15 106 0 63 -15 91 -24 45 -10 -50 -60 -149 -64 -129 -3 10 -1
26 2 35 20 46 24 178 6 208 -9 17 -10 16 -11 -8 0 -36 -48 -169 -67 -188 -14
-13 -15 -12 -9 15 3 17 9 66 12 111 11 130 -13 229 -30 125 -8 -54 -59 -206
-64 -192 -5 15 28 312 36 326 8 13 3 68 -8 79 -5 5 -11 -4 -15 -20 -23 -120
-77 -281 -83 -250 -2 11 3 67 13 125 9 58 15 132 13 165 l-3 59 -39 -119 c-61
-183 -70 -176 -36 29 17 111 18 147 1 147 -4 0 -20 -39 -35 -87 -16 -49 -35
-99 -43 -113 -13 -23 -13 -19 -8 45 3 39 13 100 21 138 11 44 14 83 9 114 l-7
48 -38 -103 c-21 -57 -41 -106 -45 -110 -4 -4 -4 47 0 113 5 89 4 128 -6 150
l-13 30 -3 -30 c-2 -16 -14 -61 -26 -100 l-22 -70 -6 91 c-4 69 -11 100 -28
127 -12 19 -27 37 -33 39 -6 2 2 19 20 39 30 34 31 34 114 34 96 0 155 -19
224 -72 47 -35 74 -40 81 -13 4 13 3 13 -6 0 -9 -13 -11 -13 -11 3 0 10 -8 20
-17 24 -25 9 -153 103 -153 113 0 4 14 13 30 20 35 14 36 18 13 37 -56 44 -65
47 -137 45 -39 -2 -80 -5 -91 -8 -19 -5 -19 -4 2 14 12 11 25 31 28 44 7 28
42 51 70 46 10 -2 20 3 22 10 3 8 -6 12 -29 12 -30 1 -31 2 -13 12 24 14 49
38 39 38 -3 0 0 8 7 18 11 14 11 15 0 5 -11 -9 -17 -9 -28 3 -8 8 -31 14 -51
14 -36 0 -36 0 -17 19 22 22 103 42 91 22 -5 -7 1 -11 16 -11 21 1 21 2 5 11
-9 6 -15 13 -13 17 2 4 -18 5 -45 4 -36 -3 -55 1 -76 16 -15 10 -35 22 -43 25
-8 4 1 4 20 1 l35 -6 -45 24 c-28 14 -48 19 -52 13 -5 -6 -8 -5 -8 3 0 6 -9
12 -19 12 -11 0 -23 5 -26 10 -9 14 -45 12 -77 -4 -16 -9 -30 -10 -36 -4 -6 6
-14 5 -23 -4 -8 -7 -25 -14 -38 -16 -13 -1 -36 -13 -52 -27 -16 -13 -36 -22
-43 -19 -17 6 -46 -33 -46 -61 1 -18 1 -19 11 -2 16 27 32 21 24 -10 -16 -66
-52 -57 -62 15 -4 31 1 48 26 89 17 27 31 55 31 62 0 6 5 11 10 11 6 0 10 -6
10 -14 0 -7 6 -19 14 -25 11 -9 18 -2 34 36 19 42 22 45 28 26 9 -34 43 -30
57 7 6 17 17 30 24 30 8 0 13 -12 13 -30 0 -32 19 -40 39 -16 7 8 26 19 43 25
30 11 30 11 24 -20 -5 -29 -4 -31 17 -26 46 11 63 15 87 24 14 5 41 6 60 2
l35 -6 -31 -2 c-17 0 -39 -10 -49 -21 -17 -18 -16 -19 10 -26 16 -4 36 -2 46
5 27 16 37 14 41 -11 2 -19 9 -23 37 -21 48 2 59 17 39 51 -21 35 -97 62 -203
71 -65 5 -74 8 -47 13 20 5 32 14 32 24 0 18 -19 17 -102 -7 -54 -15 -69 -8
-43 21 23 25 14 25 -36 0 -22 -12 -45 -20 -52 -18 -18 3 -87 -21 -133 -48 -29
-16 -56 -45 -84 -90 -23 -36 -55 -73 -72 -82 -85 -47 -124 -81 -151 -133 -23
-45 -27 -63 -24 -109 3 -30 13 -74 22 -98 l18 -43 18 27 c24 37 43 46 109 51
73 6 130 -16 130 -49 0 -13 -9 -66 -20 -118 -24 -115 -26 -246 -5 -365 30
-171 135 -404 236 -524 l56 -67 -37 18 c-50 25 -81 59 -139 156 -99 165 -158
355 -168 537 -6 120 14 302 39 349 14 27 -5 43 -35 29 -33 -15 -47 -90 -54
-273 -8 -217 24 -367 121 -575 80 -171 390 -643 499 -762 l55 -58 -45 -2 c-28
-1 -61 -12 -91 -30 -37 -22 -59 -28 -106 -28 l-60 0 -28 -54 c-16 -30 -47 -71
-68 -91 -45 -41 -49 -59 -20 -85 13 -12 20 -31 20 -53 0 -60 22 -166 38 -184
21 -24 48 -22 96 6 40 23 116 48 184 60 59 10 34 -22 -63 -80 -49 -30 -98 -64
-108 -76 -9 -11 -32 -24 -50 -28 -29 -7 -30 -8 -6 -9 15 -1 43 6 62 14 80 33
76 8 -12 -85 -65 -69 -71 -73 -102 -66 -21 3 -48 21 -71 46 -44 46 -51 71 -12
45 14 -9 44 -23 67 -31 37 -12 40 -12 23 1 -10 8 -22 16 -26 17 -4 2 -28 33
-53 69 -47 68 -58 114 -26 106 12 -3 16 0 12 9 -3 8 -12 14 -19 14 -12 0 -12
4 -3 22 9 17 9 24 -5 33 -8 7 -13 14 -10 18 3 3 1 13 -5 24 -5 10 -13 32 -16
48 l-7 30 -9 -24 c-6 -14 -10 -39 -11 -56 -1 -26 -8 -36 -35 -51 -31 -16 -33
-19 -15 -25 33 -12 37 -30 11 -51 l-24 -20 30 7 29 6 -19 -21 c-11 -12 -19
-25 -18 -29 1 -3 -1 -8 -4 -11 -4 -3 -3 1 1 8 4 6 2 12 -4 12 -7 0 -9 -8 -5
-19 4 -13 -7 -30 -40 -60 l-46 -42 38 7 c21 4 46 11 55 15 27 14 29 11 14 -18
-23 -44 -57 -70 -121 -91 l-60 -21 87 0 87 -1 -52 -51 c-29 -27 -64 -58 -79
-67 -16 -9 -28 -19 -28 -22 0 -10 79 -1 103 11 12 5 4 -6 -18 -26 -23 -21 -58
-41 -85 -47 -41 -11 -43 -13 -20 -19 39 -11 119 -10 141 1 21 12 26 -2 7 -17
-16 -13 -142 -63 -157 -63 -6 0 -11 7 -11 15 0 8 -15 37 -33 63 -18 26 -39 62
-45 81 -15 42 -16 95 -2 86 6 -3 10 -2 10 3 0 16 -28 22 -38 9 -6 -7 -10 -23
-10 -37 1 -44 -12 -105 -22 -108 -15 -5 -40 -32 -40 -43 0 -5 10 -9 21 -9 18
0 15 -5 -17 -26 -21 -14 -47 -30 -59 -35 -13 -6 -2 -8 35 -4 l55 6 -23 -23
c-12 -14 -22 -30 -22 -37 0 -18 -79 -8 -91 11 -5 7 -9 29 -9 48 -1 58 -17 70
-29 22 -7 -23 -16 -44 -21 -47 -6 -4 -8 -11 -5 -16 12 -18 -32 -9 -49 10 -10
11 -31 23 -46 26 -17 4 -30 15 -34 28 -3 12 -6 131 -6 265 0 267 -2 279 -61
325 -32 24 -32 25 -20 68 39 137 38 195 -3 238 -13 14 -34 50 -46 80 -36 93
-91 159 -189 229 -51 36 -66 40 -53 15 5 -10 12 -31 16 -46 6 -26 4 -25 -31
14 -51 57 -140 97 -229 103 -50 4 -57 3 -24 -2 54 -9 87 -30 127 -80 37 -46
53 -92 53 -151 0 -70 -8 -77 -72 -63 -89 19 -252 32 -408 32 l-149 0 -4 33 -3
32 -18 -42 c-16 -36 -25 -44 -75 -62 -87 -32 -106 -57 -106 -143 0 -55 4 -71
17 -79 35 -19 102 -74 106 -87 3 -11 -11 -12 -69 -6 -41 4 -94 13 -119 20 -58
18 -218 18 -292 0 -118 -28 -138 -57 -148 -214 -8 -122 -15 -155 -57 -287 -24
-72 -27 -101 -32 -295 l-6 -215 -91 -126 c-50 -70 -108 -154 -130 -187 -21
-34 -41 -61 -44 -61 -3 0 -16 8 -29 18 l-24 18 64 87 c118 160 159 221 185
273 25 51 26 58 20 165 -11 184 -12 192 -18 208 -4 8 -8 29 -10 45 -4 37 -22
36 -25 -1 -1 -15 -8 -31 -15 -35 -7 -5 -9 -9 -5 -9 4 0 3 -9 -3 -21 -6 -11
-12 -32 -13 -47 -2 -20 -11 -32 -37 -44 -33 -17 -33 -18 -10 -19 14 -1 31 -1
38 0 21 3 13 -8 -19 -28 -18 -11 -26 -22 -20 -25 6 -4 11 -14 11 -22 0 -19
-47 -18 -66 1 -9 8 -24 15 -35 15 -10 0 -19 5 -19 11 0 8 16 9 48 6 38 -5 41
-4 17 3 -18 6 -47 31 -74 66 l-44 56 41 -27 c26 -17 48 -25 59 -21 14 6 12 10
-13 25 -17 10 -43 43 -60 75 -25 48 -27 58 -14 66 12 8 12 10 -3 16 -14 5 -17
15 -15 42 5 61 -19 49 -31 -15 -18 -94 -29 -108 -84 -107 -36 0 -55 7 -84 30
-51 41 -54 60 -7 35 41 -22 108 -27 134 -11 10 7 4 8 -20 4 -32 -5 -41 -1
-115 67 -53 49 -71 70 -55 65 47 -13 137 -19 144 -8 3 6 -21 23 -57 39 -60 29
-127 84 -127 105 0 7 5 6 14 -1 8 -6 38 -14 67 -17 l54 -6 -30 20 c-17 10 -39
31 -48 45 -16 25 -16 26 0 21 11 -3 8 0 -5 8 -16 10 -19 17 -11 25 8 8 7 13
-2 18 -8 6 -10 4 -5 -6 4 -8 0 -5 -8 5 -9 11 -16 25 -16 32 0 7 -3 20 -6 29
-5 12 -2 16 12 14 10 -1 26 1 34 4 8 3 24 8 35 10 14 2 4 9 -30 19 -40 12 -50
20 -52 39 -2 13 -6 44 -11 69 l-7 45 -13 -53 c-6 -30 -12 -62 -12 -73 0 -14
-7 -19 -25 -19 -20 0 -25 5 -25 25 0 30 -22 134 -26 120 -1 -5 -5 -31 -9 -58
-7 -50 -32 -66 -42 -27 -7 27 -25 25 -21 -2 2 -16 12 -25 33 -29 24 -5 27 -7
13 -13 -10 -5 -24 -6 -32 -3 -16 6 -36 -11 -36 -30 0 -7 14 -19 32 -26 44 -18
22 -28 -24 -12 l-38 12 -41 -55 -42 -56 44 -37 c50 -42 52 -45 78 -78 l18 -25
49 21 c33 15 50 18 53 11 4 -12 -43 -58 -58 -58 -11 0 -119 74 -163 111 l-38
32 -60 -53 c-34 -29 -64 -50 -67 -47 -3 4 22 36 56 73 80 87 128 161 165 253
30 73 31 82 31 216 -1 125 -4 149 -28 220 -67 199 -241 379 -432 448 -230 82
-464 51 -659 -87 -279 -200 -385 -537 -265 -846 33 -86 34 -91 15 -84 -20 8
-65 113 -81 191 -19 86 -19 219 -1 305 64 299 349 558 654 593 l62 7 -24 19
c-23 18 -62 97 -52 106 7 8 116 -98 116 -112 0 -8 22 -15 58 -20 303 -36 550
-234 638 -510 29 -92 48 -222 40 -280 l-5 -40 681 3 c541 2 683 0 690 -10 4
-8 8 13 8 48 0 77 26 118 98 157 46 25 57 37 83 93 42 89 100 144 202 193 114
56 205 74 332 68 276 -13 534 -185 570 -380 4 -20 20 -53 36 -73 16 -20 29
-48 29 -61 0 -13 6 -26 13 -28 6 -3 177 -6 380 -7 l367 -3 0 30 c1 37 17 67
52 94 14 12 40 46 57 76 35 62 68 83 144 92 45 5 107 26 107 37 0 2 -41 43
-91 92 -66 65 -97 89 -114 87 -17 -1 -31 10 -52 40 -15 23 -59 84 -96 136 -38
51 -109 150 -159 220 -49 69 -149 206 -221 305 -73 98 -187 253 -254 345 -181
246 -223 301 -232 301 -8 0 -222 -237 -386 -428 l-80 -92 -30 35 c-29 34 -57
43 -82 27 -14 -9 3 -33 162 -238 55 -71 107 -138 115 -151 8 -12 49 -66 90
-120 41 -54 78 -102 83 -108 4 -5 30 -39 57 -74 28 -35 50 -66 50 -70 0 -3
-26 22 -58 56 -93 101 -395 426 -420 453 -81 87 -358 411 -527 616 -83 99
-165 198 -182 220 l-33 39 -52 -59 c-156 -176 -346 -394 -360 -415 -10 -14
-19 -23 -21 -20 -1 2 -45 51 -98 109 -52 58 -146 162 -208 233 -62 70 -117
127 -121 127 -15 0 -262 -292 -300 -355 -13 -22 -27 -42 -30 -45 -4 -3 -10
-20 -13 -38 -4 -18 -20 -46 -36 -62 -33 -33 -40 -55 -31 -90 7 -24 8 -24 15
-5 8 20 138 180 214 264 23 25 71 84 108 133 38 48 70 88 74 88 5 0 391 -422
526 -577 192 -219 613 -780 613 -815 0 -6 -10 2 -22 18 -12 16 -68 79 -124
139 -56 61 -152 166 -215 235 -62 69 -118 130 -123 136 -12 12 -186 201 -232
251 -27 30 -135 83 -168 83 -16 0 -66 -93 -66 -122 0 -67 -55 68 -126 312 -20
69 -45 134 -55 144 -31 34 -60 10 -108 -90 -46 -95 -53 -104 -91 -104 -17 0
-36 -14 -62 -46 -53 -66 -169 -187 -174 -182 -2 3 -12 45 -22 95 l-19 91 38
49 c21 26 46 69 56 96 9 26 20 47 24 47 3 0 9 40 13 89 8 107 -11 215 -54 308
l-28 61 31 89 c54 158 40 368 -30 423 -49 38 -104 2 -257 -168 l-115 -127
-137 1 -137 1 -130 137 c-166 175 -198 193 -250 138 -59 -61 -84 -224 -52
-342 42 -155 41 -143 7 -218 -19 -41 -38 -108 -49 -169 -16 -95 -16 -105 0
-189 14 -70 26 -101 56 -146 l39 -56 -45 -64 c-25 -34 -58 -90 -74 -123 -18
-39 -28 -52 -29 -38 0 27 39 133 49 133 4 0 17 18 29 39 l22 39 -20 55 c-33
89 -42 89 -88 5 -51 -91 -61 -119 -73 -188 -8 -50 0 -145 17 -197 4 -12 0 -10
-14 7 -12 14 -28 51 -37 82 -19 68 -9 144 30 242 l24 58 -25 27 c-33 35 -30
47 5 21 32 -22 49 -13 32 18 -6 11 -27 34 -47 51 -20 18 -34 34 -31 37 8 8 74
-23 96 -45 12 -12 21 -16 21 -10 0 6 -27 36 -60 66 -48 44 -60 62 -61 87 0 17
-4 40 -8 51 l-8 20 -6 -20 c-3 -11 -9 -39 -12 -62 -6 -35 -11 -43 -28 -43 -22
-1 -22 -1 -2 -16 19 -15 19 -15 -9 -8 -26 6 -27 5 -17 -15 7 -11 18 -21 26
-21 8 0 15 -9 15 -19 0 -14 -5 -18 -20 -14 -11 3 -20 9 -20 13 0 5 -9 6 -20 3
-11 -3 -20 -2 -20 3 0 13 150 308 166 325 8 8 14 19 14 24 0 16 112 175 120
170 9 -6 7 60 -4 165 -15 127 39 280 113 324 42 24 85 13 161 -44 56 -42 65
-47 55 -30 -7 12 155 177 270 276 475 410 1128 713 1735 805 181 27 535 36
733 19 108 -9 147 -16 147 -26 0 -7 -4 -15 -10 -19 -5 -3 -42 -63 -81 -133
-93 -164 -163 -255 -128 -166 56 145 97 337 69 319 -15 -9 -61 -102 -129 -262
-75 -175 -73 -168 -75 -276 -1 -51 -5 -98 -9 -104 -5 -7 -28 -13 -51 -13 -68
0 -103 -10 -133 -38 l-28 -26 27 -6 c29 -5 127 -61 128 -71 0 -4 -33 -26 -72
-49 -86 -50 -161 -107 -278 -209 -106 -92 -158 -118 -209 -102 -21 6 -56 27
-79 47 -41 34 -42 35 -42 12 0 -40 46 -96 90 -109 36 -11 38 -13 22 -25 -15
-12 -15 -13 9 -14 14 0 54 18 87 40 34 22 62 36 62 31 0 -5 -25 -42 -55 -82
-30 -40 -53 -74 -51 -76 12 -13 75 38 134 107 37 44 68 76 70 70 2 -5 -15 -55
-38 -111 -22 -56 -39 -107 -37 -113 7 -21 94 76 132 148 44 83 61 96 50 39
-22 -117 -31 -193 -23 -193 33 0 108 132 108 190 0 11 4 20 8 20 9 0 42 -123
42 -155 0 -27 32 -13 58 25 15 22 22 45 19 63 -5 35 -1 34 18 -3 20 -38 51
-56 71 -39 8 6 14 19 14 28 0 13 9 15 46 13 38 -3 46 -1 50 14 4 13 16 20 41
22 44 3 56 10 49 28 -4 10 4 14 30 14 27 0 37 5 41 20 4 14 14 20 34 20 15 0
32 6 36 13 4 7 21 18 36 25 19 8 27 18 23 27 -3 10 1 15 12 15 21 1 52 23 52
38 0 26 53 52 107 52 51 0 59 -3 106 -46 31 -28 57 -44 68 -41 9 3 30 -4 46
-14 30 -20 73 -25 73 -9 0 6 17 1 37 -10 49 -26 67 -26 60 1 -4 16 -2 19 11
13 9 -4 39 -9 66 -12 44 -4 48 -2 44 15 -4 16 1 18 44 19 54 1 66 7 50 27 -9
11 -2 13 37 14 64 1 77 9 55 34 -16 18 -16 19 16 19 18 0 41 7 51 16 17 16 17
17 -4 34 l-22 18 38 7 c61 12 43 45 -24 45 -16 0 -29 5 -29 10 0 6 8 10 19 10
22 0 45 25 36 40 -3 5 -22 10 -42 10 l-35 0 23 19 c23 19 23 21 7 37 -16 16
-25 16 -170 -5 -167 -24 -448 -40 -448 -25 0 5 10 14 22 19 13 6 28 20 34 33
6 12 20 29 30 37 15 11 16 17 6 23 -10 7 -8 15 8 35 l21 27 -20 0 -21 0 20 20
c25 25 26 60 3 60 -15 1 -15 3 5 19 31 26 28 39 -10 43 l-33 3 33 18 c37 20
38 43 1 40 -47 -3 -55 7 -21 27 18 11 32 24 32 30 0 9 -29 15 -59 11 -8 -2
-10 2 -5 10 5 9 2 10 -10 6 -32 -13 -66 -19 -66 -13 0 3 25 19 57 34 l56 29
-32 6 c-22 5 -52 -1 -99 -19 -73 -27 -69 -19 18 41 l55 38 -52 -6 c-29 -3 -69
-17 -90 -30 -21 -13 -49 -27 -63 -31 -24 -7 -23 -6 7 21 38 33 93 102 93 115
0 12 -89 -36 -121 -65 -33 -30 -111 -92 -129 -102 -8 -5 18 31 58 79 40 48 79
101 87 117 9 16 21 29 28 29 7 0 82 -17 167 -39 375 -94 811 -298 1126 -526
85 -62 208 -159 240 -190 6 -6 40 -35 75 -65 76 -64 231 -220 310 -310 90
-104 245 -315 321 -440 39 -63 77 -122 83 -130 34 -43 225 -445 225 -474 0 -5
-17 -5 -37 -1 -21 4 -43 8 -50 8 -7 0 -16 12 -22 26 -24 67 -25 68 -29 27 -3
-39 -27 -69 -47 -59 -5 2 2 -7 18 -21 31 -29 33 -36 12 -36 -21 0 -19 -16 4
-39 11 -11 17 -22 14 -25 -3 -3 0 -26 7 -51 9 -32 18 -45 31 -45 21 0 33 -16
23 -31 -4 -8 -9 -7 -15 2 -10 15 -5 -25 11 -97 5 -23 18 -86 29 -140 11 -55
33 -137 49 -184 17 -47 49 -137 71 -200 22 -63 43 -141 47 -172 4 -38 12 -59
22 -63 9 -3 81 -9 160 -12 l145 -6 -6 159 c-26 655 -245 1287 -637 1834 -250
349 -558 664 -860 880 -551 393 -1151 621 -1790 679 -105 10 -498 13 -595 4z
m835 -254 c8 -5 10 -9 4 -9 -6 0 -38 -32 -70 -72 -74 -90 -166 -189 -171 -184
-2 2 18 41 46 87 27 46 59 110 71 142 l22 58 41 -6 c23 -4 49 -11 57 -16z
m-3110 -1132 l55 -62 -52 44 c-29 24 -53 47 -53 50 0 4 -9 7 -19 8 -28 2 -33
-34 -16 -101 20 -77 25 -84 96 -150 34 -31 59 -60 56 -63 -12 -12 -59 9 -97
43 -30 27 -40 32 -40 20 0 -20 26 -74 48 -99 8 -9 13 -20 9 -23 -10 -11 -43 6
-77 39 l-34 32 27 -49 c30 -53 32 -60 17 -51 -15 9 -43 66 -46 95 -14 113 -15
174 -5 216 20 77 38 114 58 114 10 0 43 -28 73 -63z m874 9 c31 -64 34 -180 6
-264 -13 -38 -31 -80 -42 -93 l-19 -24 15 32 c22 44 20 51 -5 19 -22 -29 -27
-30 -49 -16 -12 7 -11 12 8 28 19 17 47 80 39 88 -1 2 -22 -10 -46 -27 -24
-16 -56 -29 -70 -29 -25 0 -25 1 14 36 23 20 30 30 17 24 -18 -9 -23 -8 -28 5
-3 8 -10 12 -15 9 -15 -9 -10 20 10 51 24 39 89 105 103 105 15 0 2 -59 -19
-82 -9 -10 -22 -18 -29 -18 -7 0 -15 -4 -18 -8 -3 -5 11 -6 31 -3 29 5 40 13
56 45 20 38 31 114 20 142 -4 11 -10 11 -40 -1 -19 -8 -47 -24 -64 -35 -47
-34 -33 -14 18 25 58 45 82 42 107 -9z m-858 -103 c19 -20 34 -44 34 -53 0 -9
9 -25 20 -35 28 -25 25 -35 -9 -35 -31 0 -93 44 -89 64 1 6 -6 25 -15 43 -9
18 -17 37 -17 43 0 23 44 8 76 -27z m154 -70 c19 -32 51 -78 72 -102 22 -25
40 -58 44 -80 3 -20 8 -45 11 -56 5 -17 7 -16 14 9 10 35 -2 96 -25 131 -23
35 -3 31 27 -5 24 -28 58 -117 72 -188 11 -55 23 -26 30 78 5 73 12 105 24
117 15 16 16 14 18 -28 2 -24 6 -64 9 -88 8 -65 24 -32 24 52 0 53 3 67 15 67
11 0 15 -14 16 -57 l2 -58 6 45 c8 49 56 166 79 190 8 9 6 -1 -6 -25 -11 -22
-24 -57 -30 -77 l-10 -37 94 -47 c94 -47 171 -114 157 -137 -3 -5 -1 -7 4 -4
12 8 39 -20 30 -30 -6 -6 20 -63 29 -63 2 0 -2 14 -11 30 -9 17 -13 30 -11 30
19 0 76 -177 75 -230 0 -14 -7 4 -14 38 -8 35 -19 70 -25 77 -6 7 -9 19 -7 26
2 8 2 11 0 8 -2 -4 -33 8 -68 26 -50 25 -78 32 -129 34 -36 1 -75 -3 -86 -9
-19 -10 -20 -9 -15 17 3 15 -3 6 -15 -22 -46 -114 -41 -223 14 -274 l25 -23
-6 33 c-3 19 -5 43 -4 54 0 11 1 29 1 41 0 16 7 21 31 22 36 1 103 48 95 68
-8 21 10 26 28 8 19 -18 19 -25 5 -79 -5 -22 -11 -45 -12 -51 -2 -7 -8 -18
-14 -25 -14 -19 -13 -49 3 -49 6 0 22 8 35 19 19 16 24 30 27 89 2 39 -1 85
-6 102 -13 37 -4 38 47 6 29 -19 43 -37 55 -72 21 -61 20 -136 0 -177 -23 -43
-72 -89 -87 -81 -9 5 -9 4 -1 -5 10 -10 17 -10 35 0 l24 12 -20 -23 c-34 -38
-55 -40 -109 -8 -27 16 -58 27 -68 25 -11 -3 -15 -1 -12 5 10 16 -13 25 -48
20 -32 -5 -32 -5 -8 -15 l25 -10 -30 -7 c-28 -7 -28 -8 -5 -10 14 -1 19 -4 12
-7 -10 -4 -9 -8 5 -19 16 -12 13 -13 -31 -14 -52 0 -58 -9 -10 -14 16 -2 33
-4 38 -5 19 -2 -18 -31 -48 -37 -40 -7 -115 12 -123 32 -10 28 8 64 46 89 48
32 47 69 -1 79 -90 18 -187 -6 -188 -46 0 -5 5 -8 12 -8 18 0 88 -72 88 -90 0
-23 -27 -45 -71 -59 -42 -14 -81 -7 -103 17 -13 16 -11 17 20 18 19 0 39 5 44
10 5 5 -8 8 -36 5 -63 -5 -74 12 -19 28 25 7 45 17 45 22 0 12 -17 11 -42 -2
-15 -8 -19 -8 -14 0 5 7 -5 11 -26 12 -33 0 -33 0 -8 12 l25 11 -28 4 c-16 2
-46 -6 -70 -19 -23 -12 -65 -29 -92 -39 l-50 -17 -20 25 c-11 14 -26 35 -33
46 -12 20 -13 20 -7 -4 6 -23 4 -23 -24 9 -36 39 -55 100 -48 153 3 21 2 36
-2 33 -17 -10 11 114 39 170 44 90 115 156 227 210 52 25 98 45 103 45 14 0
20 29 7 37 -7 5 -21 28 -32 53 -11 25 -35 65 -54 90 -23 30 -26 38 -10 23 13
-12 40 -48 59 -80z m4628 70 c-10 -2 -28 -2 -40 0 -13 2 -5 4 17 4 22 1 32 -1
23 -4z m-345 -64 c21 0 21 -1 2 -9 -11 -5 -34 -9 -51 -9 -17 -1 -48 -12 -68
-26 -37 -25 -56 -31 -56 -17 1 26 57 60 108 64 6 1 12 8 12 15 0 12 3 11 16
-1 8 -9 25 -16 37 -17z m-193 -43 c0 -2 -7 -9 -15 -16 -13 -11 -14 -10 -9 4 5
14 24 23 24 12z m222 -53 c59 -57 24 -143 -59 -143 -59 0 -109 43 -99 85 4 15
20 40 36 56 38 38 83 39 122 2z m-329 -43 c3 -27 10 -58 16 -67 5 -10 46 -33
91 -52 87 -35 103 -55 23 -27 -66 23 -181 32 -226 17 -20 -7 -45 -23 -56 -37
-28 -36 -34 -30 -27 28 8 59 24 94 58 124 21 20 95 63 109 64 3 0 9 -22 12
-50z m593 -4 c10 -8 17 -17 14 -19 -3 -3 -16 3 -30 13 -29 22 -14 27 16 6z
m-509 -161 c46 -14 113 -69 113 -93 0 -4 -10 5 -23 20 -30 36 -80 60 -157 74
-57 11 -60 12 -24 13 22 1 63 -6 91 -14z m-3544 -135 c3 -13 0 -20 -9 -20 -8
0 -14 10 -14 26 0 28 15 25 23 -6z m1517 -76 l33 -75 -93 -137 c-150 -218
-200 -286 -200 -269 0 33 212 557 225 557 1 0 17 -34 35 -76z m-1585 46 c4 -6
16 -8 28 -5 17 5 19 4 7 -4 -23 -16 -70 -14 -70 4 0 17 26 20 35 5z m135 -145
c-7 -8 -18 -15 -24 -15 -6 0 -2 7 8 15 25 19 32 19 16 0z m2730 -102 c39 -54
110 -150 158 -213 49 -63 124 -167 167 -230 43 -63 109 -156 147 -206 73 -98
92 -136 31 -61 -21 25 -101 117 -177 204 -77 87 -141 160 -143 162 -7 10 -12
-8 -14 -52 -2 -27 -6 -50 -9 -52 -3 -2 -17 21 -31 52 -50 115 -126 254 -161
297 -61 73 -64 71 -156 -83 -45 -75 -95 -155 -111 -179 l-29 -44 -10 31 c-6
17 -15 31 -19 31 -4 0 -28 -21 -53 -45 l-45 -46 -17 23 c-10 13 -18 25 -18 28
0 5 41 54 235 282 50 58 107 126 128 152 21 25 42 46 47 46 5 0 40 -44 80 -97z
m-2589 0 c-12 -20 -14 -14 -5 12 4 9 9 14 11 11 3 -2 0 -13 -6 -23z m-1381
-50 c0 -2 -15 -2 -32 2 -32 6 -32 5 7 -13 l40 -20 -40 0 c-58 0 -65 -1 -65
-10 0 -5 12 -15 26 -22 14 -8 30 -23 36 -34 9 -17 8 -18 -13 -12 -71 19 -72
19 -63 5 5 -8 9 -20 10 -27 2 -8 10 -22 18 -31 26 -29 18 -34 -20 -12 -43 26
-44 26 -44 0 0 -11 13 -34 29 -50 34 -34 22 -39 -20 -8 -35 25 -35 27 -5 98
14 31 35 83 47 117 l23 61 33 -19 c18 -11 33 -22 33 -25z m608 -35 c16 -16 15
-28 -3 -28 -8 0 -32 -9 -54 -21 -23 -11 -46 -19 -53 -17 -8 3 0 12 17 21 34
18 29 22 -9 7 -17 -6 -27 -6 -32 2 -9 14 15 28 48 28 15 0 30 5 33 10 8 14 38
13 53 -2z m602 -4 c36 -15 69 -49 58 -60 -8 -7 -112 50 -116 64 -5 16 9 15 58
-4z m-26 -59 c14 -13 26 -29 26 -35 0 -14 -82 30 -88 48 -7 21 34 13 62 -13z
m-1074 -6 c0 -6 -4 -7 -10 -4 -5 3 -10 11 -10 16 0 6 5 7 10 4 6 -3 10 -11 10
-16z m525 2 c-8 -14 -95 -45 -103 -37 -13 14 40 46 75 46 19 0 32 -4 28 -9z
m49 -36 c26 -20 87 -19 147 2 43 15 54 16 96 4 78 -23 121 -25 148 -7 32 21
48 20 69 -2 15 -18 13 -20 -50 -51 -37 -18 -99 -41 -139 -51 -67 -17 -78 -18
-146 -4 -72 15 -158 48 -200 78 -21 14 -21 14 7 30 36 19 44 19 68 1z m5501
-10 c11 -1 18 -5 17 -10 -2 -4 1 -11 6 -14 9 -6 84 -231 77 -231 -9 0 -80 52
-87 63 -12 19 -9 30 7 23 8 -3 15 0 16 7 0 9 2 9 6 0 7 -18 20 -16 20 2 0 11
-11 15 -37 15 -31 0 -42 6 -64 34 -14 19 -26 38 -26 41 0 7 38 2 78 -10 12 -4
22 -3 22 2 0 5 -19 16 -41 23 -46 15 -69 34 -69 55 0 10 8 12 28 8 15 -3 36
-6 47 -8z m-5816 -59 c-21 -43 -39 -59 -39 -35 0 23 48 94 58 85 2 -3 -6 -25
-19 -50z m939 -34 c62 -137 11 -412 -106 -564 -20 -27 -38 -44 -40 -39 -2 6
17 55 41 108 82 180 108 319 83 447 -9 43 -23 90 -32 103 -15 24 -15 24 6 13
12 -6 33 -37 48 -68z m-89 -31 c17 -43 31 -105 30 -131 0 -16 -10 1 -27 47
-15 39 -30 75 -35 79 -12 12 -8 31 7 31 8 0 19 -12 25 -26z m-1355 -50 c-2 -2
-15 2 -29 9 -17 9 -25 22 -25 39 1 26 1 26 29 -9 16 -19 28 -37 25 -39z m1323
-13 c8 -83 10 -289 2 -294 -5 -3 -9 -16 -9 -29 0 -61 -131 -245 -174 -245 -20
0 -20 17 -2 89 8 31 17 88 21 126 8 86 16 109 76 208 47 77 73 155 62 186 -5
13 -3 14 7 4 8 -7 15 -28 17 -45z m-598 6 c12 -19 16 -32 11 -29 -11 7 -43 65
-36 65 2 0 13 -16 25 -36z m-106 4 c8 -28 -3 -109 -13 -103 -5 3 -6 -3 -3 -14
6 -25 -41 -117 -72 -137 -30 -19 -174 -76 -198 -77 -19 -1 -54 -82 -67 -157
l-8 -45 -1 55 c-2 129 86 313 191 400 35 29 148 100 159 100 4 0 9 -10 12 -22z
m651 -16 c-4 -9 -6 -21 -5 -25 1 -5 -3 -6 -8 -3 -6 4 -5 18 2 36 7 17 13 26
15 20 2 -6 0 -18 -4 -28z m802 -89 c39 -39 105 -123 146 -185 80 -120 202
-327 196 -333 -6 -6 -199 221 -275 323 -67 90 -203 304 -203 319 0 9 51 -37
136 -124z m-2086 39 c-16 -6 -60 27 -60 44 0 11 9 7 35 -13 19 -15 30 -30 25
-31z m1125 31 c-5 -21 -4 -24 7 -16 20 16 78 33 78 23 0 -13 -100 -142 -129
-167 -52 -43 -11 -34 48 10 42 33 61 42 65 32 7 -20 -12 -83 -40 -131 -23 -41
-127 -144 -145 -144 -13 0 -11 87 2 113 6 12 7 18 2 12 -6 -5 -21 -30 -34 -55
-39 -75 -47 -82 -74 -64 -58 38 -135 196 -118 240 4 12 10 9 24 -13 18 -27 19
-27 19 -5 0 12 2 22 5 22 17 0 55 -35 65 -61 15 -36 33 -19 23 21 -5 23 -18
43 -90 142 -13 17 -23 35 -23 39 0 16 23 9 47 -13 21 -19 23 -20 23 -3 0 15 6
17 38 12 20 -3 46 -8 57 -13 19 -7 19 -6 -2 17 l-22 24 91 2 90 2 -7 -26z
m5283 -63 c29 -11 54 -52 40 -66 -8 -7 -98 81 -98 96 0 11 3 10 13 -2 6 -8 27
-21 45 -28z m-6444 -38 c-8 -11 -44 27 -44 47 0 22 1 22 23 -10 13 -19 23 -35
21 -37z m1293 46 c-3 -8 -6 -5 -6 6 -1 11 2 17 5 13 3 -3 4 -12 1 -19z m-1331
-106 c-9 -9 -37 8 -31 18 5 8 11 7 21 -1 8 -6 12 -14 10 -17z m6515 -13 c22
-8 46 -46 35 -56 -1 -2 -27 20 -57 48 -30 28 -43 44 -29 35 14 -9 37 -21 51
-27z m-6177 12 c4 -5 -14 -51 -39 -103 -25 -51 -65 -149 -88 -217 l-44 -123
-6 53 c-20 163 1 252 80 339 51 56 84 73 97 51z m395 -62 c13 -22 21 -42 18
-45 -7 -7 -57 55 -57 72 0 25 16 15 39 -27z m-777 -21 c-7 -7 -12 -8 -12 -2 0
14 12 26 19 19 2 -3 -1 -11 -7 -17z m6598 -53 c19 -23 8 -26 -20 -5 -19 15
-21 20 -9 20 9 0 22 -7 29 -15z m-1330 -142 c49 -48 88 -88 86 -90 -8 -9 -129
73 -150 101 -77 103 -48 98 64 -11z m300 -64 c7 -16 15 -28 17 -25 2 2 39 -32
81 -76 42 -45 96 -99 119 -121 23 -22 40 -44 37 -49 -3 -5 -1 -7 4 -6 10 3
154 -114 147 -120 -10 -10 -177 102 -247 166 -15 14 -25 30 -21 35 3 6 1 7 -5
3 -15 -9 -106 110 -161 212 -9 18 -9 21 3 16 8 -3 20 -19 26 -35z m-4625 6
c112 -29 217 -88 298 -167 129 -127 196 -270 204 -438 8 -161 -47 -320 -145
-418 -37 -38 -120 -87 -130 -77 -2 1 20 34 47 72 28 38 51 73 51 77 0 3 -12 0
-27 -7 -16 -8 -41 -17 -58 -21 -25 -5 -28 -4 -15 6 59 50 150 210 149 263 0
14 -5 10 -15 -14 -8 -18 -17 -32 -18 -30 -2 2 0 31 6 64 34 208 -54 397 -229
490 -75 40 -351 29 -494 -20 -81 -27 -180 -95 -237 -162 -45 -53 -45 -53 -11
68 11 36 30 83 44 103 33 49 18 45 -43 -9 -62 -56 -123 -145 -152 -223 -27
-71 -51 -212 -45 -266 4 -36 3 -37 -4 -11 -37 132 34 369 149 497 54 60 159
142 230 178 111 57 319 77 445 45z m4415 -90 c41 -39 95 -88 120 -108 l45 -38
-37 15 c-74 29 -148 86 -193 147 -25 34 -45 66 -45 71 0 14 20 -2 110 -87z
m755 -145 c13 -52 23 -96 21 -97 -2 -2 -11 8 -20 22 -23 35 -49 163 -40 195
l8 25 4 -25 c2 -14 14 -68 27 -120z m-573 -89 l117 -106 -32 -17 c-30 -16 -33
-16 -42 0 -5 9 -38 46 -71 82 -54 57 -114 139 -114 155 0 11 25 -9 142 -114z
m-4662 47 c162 -74 266 -267 230 -427 -13 -60 -49 -140 -80 -181 -16 -21 -15
-15 6 44 14 38 24 81 22 95 -3 23 -7 18 -30 -30 -35 -74 -122 -163 -190 -194
-253 -116 -521 32 -536 295 -9 156 80 309 221 381 79 40 118 49 217 46 66 -2
97 -9 140 -29z m4900 -142 c0 -14 -18 -42 -23 -36 -2 3 -7 25 -11 50 l-6 45
20 -24 c11 -13 20 -28 20 -35z m985 -43 c116 -2 215 -6 222 -8 14 -5 -1 -60
-20 -72 -6 -4 -7 -1 -2 8 8 12 6 12 -8 0 -14 -11 -40 -13 -120 -7 -56 3 -112
9 -125 12 -17 5 -21 3 -17 -9 10 -23 -20 -27 -82 -10 -32 8 -68 18 -81 21 -18
3 -22 9 -18 26 3 11 6 29 6 40 0 13 4 16 18 10 9 -4 112 -9 227 -11z m-1228
-39 c44 -21 61 -47 74 -115 9 -42 8 -61 -2 -84 l-12 -30 -8 53 c-12 86 -56
134 -125 134 -43 0 -47 -5 -64 -80 l-13 -57 -13 35 c-7 19 -13 51 -13 72 -2
74 91 112 176 72z m-212 -54 c10 -16 -15 -32 -41 -27 -15 3 -39 1 -52 -4 -24
-9 -23 -3 1 29 10 12 84 14 92 2z m1254 -20 c11 0 22 -4 25 -9 8 -12 -56 -21
-98 -14 -34 5 -34 6 -19 29 14 22 17 23 43 9 16 -8 38 -15 49 -15z m-779 -99
c-12 -27 -31 -58 -42 -68 -20 -18 -20 -17 -15 12 7 39 31 104 54 146 l18 34 3
-37 c2 -22 -6 -57 -18 -87z m537 65 c49 -25 102 -48 116 -51 36 -9 35 -25 -1
-25 -35 0 -134 49 -182 90 -19 16 -32 30 -29 30 3 0 46 -20 96 -44z m-2672 2
c43 -11 50 -17 53 -40 l3 -27 -340 -1 c-187 0 -347 -3 -356 -6 -25 -10 -18 25
11 51 15 14 43 27 63 30 20 4 43 8 51 10 39 10 468 -4 515 -17z m2077 0 c-9
-9 -15 -9 -24 0 -9 9 -7 12 12 12 19 0 21 -3 12 -12z m146 -103 c-19 -51 -67
-105 -93 -105 -17 0 -20 21 -6 36 5 5 19 34 32 64 25 61 47 92 60 84 5 -3 9 1
10 8 1 7 4 2 8 -12 5 -16 1 -43 -11 -75z m-621 35 c20 -37 23 -55 19 -98 -5
-62 -39 -138 -68 -153 -25 -13 -36 -3 -20 19 48 66 55 171 15 228 -11 16 -18
35 -16 42 10 26 45 7 70 -38z m470 -12 c-3 -7 -5 -2 -5 12 0 14 2 19 5 13 2
-7 2 -19 0 -25z m-217 20 c0 -2 -9 -25 -19 -53 -15 -40 -25 -51 -47 -56 -74
-17 -76 -12 -16 50 31 33 63 60 70 60 6 1 12 0 12 -1z m-2470 -44 c0 -2 -7 -4
-15 -4 -8 0 -15 4 -15 10 0 5 7 7 15 4 8 -4 15 -8 15 -10z m73 9 c-13 -2 -33
-2 -45 0 -13 2 -3 4 22 4 25 0 35 -2 23 -4z m540 -84 c12 -7 35 -23 50 -35 27
-23 35 -24 188 -24 154 0 159 -1 174 -23 19 -30 31 -87 17 -87 -5 0 -19 17
-29 38 l-20 37 -149 3 c-116 2 -154 -1 -169 -12 -17 -12 -21 -10 -47 25 -15
21 -37 43 -48 49 -15 8 -82 10 -207 8 l-185 -3 -34 -39 c-25 -29 -37 -37 -45
-29 -15 15 18 73 52 90 32 17 421 18 452 2z m2833 -27 c14 -9 74 -115 74 -130
0 -26 -33 4 -65 60 -42 72 -45 94 -9 70z m-52 -115 c44 -71 57 -107 36 -107
-5 0 -15 10 -22 23 -12 21 -68 148 -68 154 0 12 15 -7 54 -70z m-3594 40 c88
-30 18 -78 -125 -85 -49 -2 -97 -8 -107 -13 -9 -5 -19 -27 -23 -49 -6 -35 -13
-43 -47 -60 l-41 -20 7 72 c7 81 22 110 67 134 55 28 212 40 269 21z m770 -30
c35 -49 31 -56 -15 -31 -29 17 -71 28 -127 34 -45 6 -87 11 -93 11 -37 6 84
15 145 11 61 -3 77 -8 90 -25z m1970 2 c54 -12 292 -152 324 -190 47 -55 99
-264 111 -444 7 -98 -12 -263 -34 -302 -5 -9 -10 70 -14 183 -7 256 -43 465
-88 513 -11 11 -38 25 -62 32 -68 18 -74 21 -59 26 6 3 12 9 12 13 0 16 -114
97 -195 138 -80 41 -79 50 5 31z m-2238 -29 c80 -25 199 -102 257 -166 58 -65
119 -173 142 -252 24 -79 35 -229 23 -298 -7 -43 -9 -32 -15 86 -8 163 -34
255 -102 357 -118 177 -282 266 -487 267 -166 0 -297 -57 -408 -179 -198 -216
-198 -564 0 -780 156 -171 388 -237 612 -176 92 25 111 22 34 -7 -136 -50
-269 -54 -403 -12 -193 61 -356 239 -410 450 -35 132 0 346 75 464 88 138 238
242 385 267 79 13 222 3 297 -21z m-1693 -22 c0 -13 -6 -39 -13 -58 l-13 -35
-6 40 c-11 64 -9 75 13 75 14 0 20 -6 19 -22z m3930 -25 c42 -26 78 -50 81
-53 3 -3 18 -14 33 -24 49 -30 23 -28 -76 6 -99 34 -144 69 -131 102 3 9 8 16
11 16 3 0 40 -21 82 -47z m-2026 6 c127 -63 261 -238 286 -374 21 -115 6 -291
-33 -375 -10 -22 -14 -26 -10 -10 13 51 16 273 4 334 -26 140 -151 333 -269
417 -66 47 -60 49 22 8z m260 -59 c35 -38 94 -117 130 -176 l67 -107 0 -116
c0 -130 15 -204 82 -419 l41 -132 145 -141 c79 -78 140 -145 135 -149 -20 -17
-407 -164 -410 -155 -2 6 -26 45 -53 88 -47 73 -55 80 -118 108 -144 65 -228
109 -260 136 l-34 28 78 50 c196 124 277 268 291 515 10 182 -25 288 -137 413
-44 51 -60 76 -60 97 0 49 32 37 103 -40z m1716 -96 l26 -23 -47 -1 c-42 0
-48 3 -68 35 -12 19 -35 44 -51 56 -37 26 -36 39 3 65 l32 21 39 -65 c22 -36
51 -76 66 -88z m613 131 c15 -14 30 -25 33 -25 7 0 75 -75 102 -114 25 -34 78
-150 66 -143 -5 3 -26 40 -48 82 -29 56 -61 97 -117 151 -43 41 -74 74 -70 74
4 0 19 -11 34 -25z m-4629 5 c21 0 23 -18 2 -26 -24 -10 -65 5 -65 22 0 12 6
15 23 10 12 -3 30 -6 40 -6z m2663 -25 c21 -29 16 -585 -5 -630 l-15 -30 -7
50 c-4 28 -5 163 -2 300 4 184 3 257 -6 273 -10 19 -20 22 -81 22 l-70 0 0
-30 c0 -16 -4 -30 -10 -30 -5 0 -10 9 -10 19 0 28 -27 51 -60 51 -30 0 -45 12
-32 24 4 4 69 6 145 4 125 -3 140 -5 153 -23z m-4041 -11 c39 -18 105 -72 105
-86 0 -13 -68 -3 -114 16 -18 7 -48 33 -66 56 l-34 43 39 -7 c22 -4 54 -14 70
-22z m151 -7 c36 -26 89 -73 123 -110 l24 -26 -54 19 c-36 14 -72 38 -111 77
-32 32 -58 61 -58 66 0 12 40 -2 76 -26z m5379 -87 c127 -68 164 -108 203
-213 20 -53 67 -285 59 -293 -2 -2 -16 36 -31 84 -61 187 -129 295 -232 364
-38 26 -87 66 -109 88 l-40 41 45 -19 c25 -11 72 -34 105 -52z m-4701 49 c100
-18 220 -82 299 -159 l52 -50 -35 6 c-19 3 -69 15 -110 26 -50 12 -137 22
-259 28 -101 5 -193 12 -205 15 -45 13 -146 58 -146 65 0 11 101 49 175 65 75
17 154 18 229 4z m559 -35 c-7 -19 -23 -18 -45 3 -27 25 -22 32 16 21 22 -7
32 -16 29 -24z m1796 6 c179 -70 291 -233 291 -422 0 -69 -30 -167 -68 -219
-59 -81 -205 -158 -302 -159 -146 0 -294 93 -367 231 -25 49 -28 64 -28 154 0
85 3 106 23 143 96 181 313 245 475 142 45 -28 98 -94 112 -138 6 -22 5 -23
-16 -11 -23 12 -219 27 -219 16 0 -2 9 -24 20 -48 22 -49 26 -132 9 -192 -23
-83 -111 -146 -204 -147 l-50 -1 30 -24 c48 -40 132 -67 205 -68 154 0 273 86
316 229 50 166 -45 368 -212 452 -197 99 -449 -3 -523 -211 -20 -57 -23 -82
-19 -160 3 -79 8 -102 37 -161 57 -118 143 -193 271 -236 54 -18 80 -21 150
-17 147 8 262 70 356 192 58 76 56 74 43 38 -69 -199 -308 -323 -518 -268
-327 85 -484 410 -336 695 44 84 147 166 255 202 71 24 192 18 269 -12z m2796
-54 c77 -100 112 -230 102 -386 -7 -124 -49 -223 -144 -339 -12 -15 -10 13 5
64 24 87 24 409 -1 520 -9 44 -20 104 -23 134 -2 30 -10 63 -15 74 -20 37 28
-5 76 -67z m-3455 68 c0 -3 -11 -20 -24 -37 -41 -53 -84 -157 -102 -242 -32
-155 -5 -325 77 -487 21 -43 39 -86 39 -96 0 -17 -32 -36 -94 -56 -17 -6 -18
-8 -2 -24 9 -10 16 -22 16 -26 0 -4 -35 -77 -77 -162 -91 -181 -67 -172 -241
-89 l-113 54 15 29 c8 16 26 43 39 58 23 29 52 69 158 221 l58 82 3 203 3 203
44 145 c24 80 53 155 64 167 33 37 137 80 137 57z m-2580 -88 l-65 -12 95 -1
c68 0 114 -6 160 -21 l65 -20 -130 -2 c-169 -1 -143 -15 45 -25 135 -6 189
-17 222 -44 7 -6 26 -21 43 -35 l30 -24 -60 -7 c-132 -17 -331 12 -427 61 -32
17 -118 100 -118 114 0 5 12 12 28 16 15 3 32 7 37 9 6 2 39 3 75 3 l65 0 -65
-12z m5200 -53 c0 -23 -95 -113 -119 -113 -11 0 -44 23 -73 50 -50 47 -51 50
-23 43 56 -14 155 -3 189 21 27 19 26 19 26 -1z m214 -29 c124 -63 239 -168
311 -284 49 -78 112 -213 125 -270 7 -30 19 -80 26 -110 11 -48 11 -53 -2 -36
-7 11 -14 24 -14 29 0 30 -94 211 -168 321 -91 136 -202 257 -311 339 -75 56
-62 60 33 11z m95 24 c20 -7 39 -17 42 -21 3 -4 10 -7 15 -5 19 5 73 -33 105
-73 39 -49 119 -209 105 -209 -3 0 -20 28 -39 63 -48 84 -139 169 -250 233
-45 26 -35 31 22 12z m-4111 -37 c52 -27 86 -61 74 -73 -17 -17 -49 1 -87 47
-41 51 -40 53 13 26z m107 -21 c10 -11 14 -20 8 -20 -5 0 -18 9 -28 20 -10 11
-14 20 -8 20 5 0 18 -9 28 -20z m-385 -26 c63 -16 70 -19 42 -22 -18 -2 -30
-7 -27 -12 3 -5 -3 -9 -12 -9 -45 -2 -102 -14 -98 -21 2 -4 -7 -5 -20 -2 -14
2 -25 0 -25 -6 0 -5 -10 -12 -22 -15 -13 -3 -74 -17 -137 -31 -63 -14 -130
-26 -150 -27 -29 0 -32 -2 -16 -9 11 -5 37 -9 57 -9 20 -1 39 -5 42 -10 8 -12
-22 -23 -37 -14 -7 3 -8 2 -4 -3 8 -9 -146 -51 -198 -54 -30 -2 -30 -2 -5 -10
14 -4 42 -8 62 -9 l37 -1 -72 -73 c-50 -51 -86 -99 -116 -158 -35 -66 -40 -80
-21 -64 12 11 33 37 46 57 41 65 175 191 264 250 101 66 203 113 226 104 14
-6 11 -12 -18 -39 -52 -47 -125 -151 -170 -242 -40 -81 -118 -204 -129 -205
-4 0 -3 18 1 40 4 22 6 41 4 43 -2 2 -21 -12 -42 -32 -39 -37 -151 -102 -232
-133 -81 -32 -76 -34 -79 27 -4 111 25 253 75 362 52 114 169 236 279 290 53
26 84 37 170 57 45 11 253 -2 325 -20z m3967 -65 c21 5 46 12 56 16 9 4 17 3
17 -3 0 -12 -57 -62 -72 -62 -21 0 -79 33 -88 50 -9 17 -8 17 19 4 22 -11 39
-12 68 -5z m-3712 -26 c33 -24 43 -58 34 -117 -7 -43 -53 -151 -68 -161 -4 -1
-6 23 -7 54 -1 49 -33 151 -48 151 -2 0 -4 -19 -4 -42 1 -79 -70 -246 -137
-323 -30 -34 -33 -36 -24 -12 7 15 16 27 20 27 4 0 7 8 7 18 -1 9 6 41 16 70
19 55 16 97 -3 49 -7 -17 -15 -25 -23 -21 -7 4 -8 3 -4 -4 4 -6 -19 -42 -50
-79 -136 -161 -273 -256 -443 -304 -83 -24 -94 -24 -54 1 65 39 115 101 160
199 25 53 60 128 78 168 78 169 208 286 370 335 70 21 144 17 180 -9z m3690
-61 c11 -4 21 -15 23 -24 3 -20 -12 -24 -31 -8 -7 6 -21 17 -32 25 l-20 14 20
0 c11 -1 29 -4 40 -7z m-3335 -15 c19 0 54 4 78 8 44 8 54 -1 29 -27 -7 -7
-16 -21 -20 -31 -8 -21 -25 -18 -99 19 -46 23 -83 57 -42 39 10 -5 35 -9 54
-8z m2902 -69 c28 -23 46 -44 41 -45 -18 -6 -63 16 -70 34 -3 10 -13 26 -21
36 -27 31 -1 18 50 -25z m-2782 -17 c-12 -17 -25 -31 -30 -31 -5 0 -12 -9 -15
-20 -4 -13 -15 -20 -30 -20 -36 0 -39 17 -5 25 17 4 35 16 42 28 12 22 51 58
57 52 2 -2 -7 -18 -19 -34z m2880 -63 c0 -18 -101 -1 -107 18 -2 7 14 7 52 0
30 -6 55 -14 55 -18z m-395 -28 c128 -22 249 -56 355 -97 72 -28 220 -121 220
-138 0 -5 -12 -18 -25 -28 -24 -17 -26 -17 -42 -1 -49 49 -194 121 -311 155
-71 21 -294 71 -298 66 -1 -1 -18 -37 -39 -80 -20 -43 -38 -77 -40 -75 -4 4
31 143 40 159 6 9 2 11 -13 7 -20 -6 -22 -2 -22 31 0 47 7 54 34 36 11 -8 75
-23 141 -35z m340 -30 c3 -5 -1 -10 -9 -10 -8 0 -18 5 -21 10 -3 6 1 10 9 10
8 0 18 -4 21 -10z m-2575 -17 c7 -6 -23 -23 -41 -23 -9 0 -26 8 -38 19 -21 19
-21 19 26 13 27 -2 50 -7 53 -9z m-35 -73 c3 -5 2 -10 -4 -10 -5 0 -13 5 -16
10 -3 6 -2 10 4 10 5 0 13 -4 16 -10z m688 -294 l45 -23 -80 -32 c-67 -28
-111 -55 -186 -114 -7 -5 4 21 24 59 30 55 48 75 88 100 28 18 54 32 58 33 4
1 27 -10 51 -23z m-1282 -189 l46 -27 17 -150 c27 -228 21 -224 94 -72 l62
131 70 -31 c39 -17 70 -36 70 -43 0 -9 -206 -495 -213 -502 -1 -1 -39 16 -84
37 -81 38 -81 38 -91 86 -9 41 -34 206 -44 292 -2 17 -20 -7 -67 -95 -35 -65
-68 -123 -73 -130 -7 -9 -30 0 -86 34 -42 24 -78 46 -79 47 -2 2 91 157 244
404 43 69 46 72 67 59 11 -7 42 -26 67 -40z m3572 -62 c15 -26 26 -53 24 -59
-3 -6 -56 -38 -120 -71 -105 -55 -114 -62 -105 -80 6 -11 12 -22 14 -24 2 -2
50 22 108 53 58 31 110 56 115 56 5 0 23 -25 39 -55 21 -39 27 -57 18 -64 -6
-5 -57 -32 -113 -60 -57 -28 -103 -55 -103 -61 0 -5 8 -25 17 -45 l17 -35 134
70 c73 39 137 68 142 65 10 -6 60 -94 60 -106 0 -18 -445 -238 -457 -226 -9
10 -213 501 -209 505 11 11 372 188 381 187 5 -1 22 -23 38 -50z m-2782 -272
l97 -28 12 -140 c7 -77 22 -209 34 -292 26 -176 36 -163 -94 -130 l-85 22 -3
47 c-3 47 -4 48 -45 58 -23 6 -62 18 -86 25 -25 8 -46 15 -48 15 -1 0 -14 -18
-29 -39 l-26 -40 -86 31 c-48 16 -91 33 -95 38 -5 4 38 66 95 136 57 71 135
173 173 226 39 54 75 98 80 98 6 0 53 -12 106 -27z m2164 -14 c80 -71 86 -192
13 -250 -20 -16 -20 -16 8 -23 15 -4 42 -17 58 -29 44 -30 146 -119 146 -126
0 -4 -45 -21 -100 -40 l-100 -32 -90 80 c-91 82 -97 85 -123 75 -13 -5 -12
-18 10 -96 13 -49 22 -96 20 -103 -5 -11 -173 -53 -181 -44 -2 2 -29 123 -59
269 -41 192 -53 266 -44 269 66 25 305 79 349 80 51 1 61 -3 93 -30z m-1680
-89 c77 -10 186 -22 243 -26 l103 -7 -3 -66 -3 -66 -82 3 -82 3 -5 -33 c-3
-18 -12 -111 -21 -207 -8 -96 -16 -175 -17 -176 -4 -3 -182 16 -186 20 -2 2 8
94 23 205 15 111 25 203 22 206 -2 3 -36 10 -73 16 -38 6 -73 14 -77 18 -7 6
10 130 17 130 1 0 64 -9 141 -20z m1042 -150 c12 -80 22 -176 22 -213 1 -104
-37 -164 -129 -204 -50 -21 -208 -29 -267 -13 -58 17 -118 74 -132 127 -5 21
-13 122 -17 224 l-7 186 33 6 c18 4 56 7 85 7 l53 0 6 -57 c3 -32 8 -115 12
-185 7 -156 19 -178 90 -178 34 0 51 6 69 25 30 29 29 19 9 228 -9 92 -14 171
-10 174 8 9 99 21 136 19 24 -1 25 -5 47 -146z"/>
<path d="M2850 6395 c-11 -13 -10 -14 4 -9 9 3 16 10 16 15 0 13 -6 11 -20 -6z"/>
<path d="M2060 6436 c0 -2 7 -7 16 -10 8 -3 12 -2 9 4 -6 10 -25 14 -25 6z"/>
<path d="M2250 6250 c0 -8 15 -34 33 -57 l34 -42 0 30 c0 21 -4 28 -14 24 -11
-3 -13 1 -9 18 3 12 3 16 0 8 -5 -11 -11 -8 -25 10 -13 16 -19 19 -19 9z"/>
<path d="M2613 6209 c-36 -23 -58 -72 -43 -98 8 -14 9 -14 10 0 0 9 16 37 36
63 20 26 34 49 32 51 -2 2 -18 -5 -35 -16z"/>
<path d="M2100 6056 c-42 -11 -92 -31 -113 -43 -41 -25 -77 -76 -77 -111 0
-13 -4 -21 -9 -17 -6 3 -7 -10 -4 -32 7 -47 13 -55 13 -19 0 47 39 122 78 150
l37 26 11 -25 c5 -14 13 -22 17 -19 4 4 7 2 7 -5 0 -7 5 -9 10 -6 6 3 10 16
10 28 0 19 2 18 19 -9 25 -41 72 -74 115 -81 32 -5 36 -9 42 -49 3 -23 3 -48
-1 -54 -12 -20 -94 -3 -134 27 -47 36 -59 52 -67 91 -3 17 -10 32 -14 32 -26
0 -16 -119 12 -145 20 -20 200 -43 206 -27 2 7 7 10 12 7 24 -15 60 67 59 135
0 41 -31 126 -43 122 -5 -2 -13 3 -17 11 -7 11 -18 13 -51 7 l-42 -8 25 19 24
19 -25 -1 c-14 -1 -59 -11 -100 -23z m60 -1 c0 -9 -62 -36 -73 -31 -7 2 -4 5
6 5 9 1 17 5 17 10 0 5 10 12 23 14 12 2 23 5 25 6 1 0 2 -1 2 -4z m-3 -51
c-10 -11 13 -44 36 -54 15 -5 29 -3 45 6 27 18 29 4 3 -27 -16 -20 -22 -22
-44 -12 -15 7 -35 30 -47 53 -18 36 -19 40 -4 40 10 0 14 -3 11 -6z"/>
<path d="M1915 5992 c3 -3 1 -10 -4 -16 -5 -6 -11 -27 -15 -46 -3 -19 -3 -28
1 -20 3 8 14 31 24 51 15 29 15 36 3 36 -8 0 -12 -3 -9 -5z"/>
<path d="M2882 5885 c0 -16 2 -22 5 -12 2 9 2 23 0 30 -3 6 -5 -1 -5 -18z"/>
<path d="M2583 5623 c9 -2 23 -2 30 0 6 3 -1 5 -18 5 -16 0 -22 -2 -12 -5z"/>
<path d="M6434 6305 c-26 -26 -31 -64 -12 -83 31 -31 108 2 108 46 0 52 -58
75 -96 37z"/>
<path d="M6152 6268 c-19 -19 -15 -48 8 -48 16 0 20 7 20 30 0 32 -9 37 -28
18z"/>
<path d="M7785 5310 c3 -5 8 -10 11 -10 2 0 4 5 4 10 0 6 -5 10 -11 10 -5 0
-7 -4 -4 -10z"/>
<path d="M2013 5297 c-10 -12 -39 -39 -65 -60 -57 -47 -162 -174 -143 -174 8
0 13 5 12 10 -1 5 7 11 17 13 27 4 123 100 153 154 15 25 33 53 41 63 8 9 12
17 9 17 -3 0 -14 -10 -24 -23z m-103 -121 c0 -2 -7 -7 -16 -10 -8 -3 -12 -2
-9 4 6 10 25 14 25 6z"/>
<path d="M1966 5117 c3 -10 9 -15 12 -12 3 3 0 11 -7 18 -10 9 -11 8 -5 -6z"/>
<path d="M2622 4145 c0 -16 2 -22 5 -12 2 9 2 23 0 30 -3 6 -5 -1 -5 -18z"/>
<path d="M1912 4401 c-133 -50 -203 -153 -203 -302 -1 -111 45 -190 141 -247
38 -23 56 -27 120 -27 141 1 260 75 315 196 24 55 27 70 22 130 -9 106 -65
192 -158 240 -62 31 -166 36 -237 10z m166 -161 c45 -27 72 -76 72 -129 0 -37
-6 -49 -39 -82 -21 -22 -44 -39 -51 -39 -7 0 -1 9 12 20 65 51 22 160 -63 160
-12 0 -37 -17 -57 -37 -21 -21 -40 -36 -44 -35 -15 4 -8 -44 11 -82 l20 -38
-22 15 c-12 8 -32 32 -45 55 -29 52 -22 100 22 150 54 62 124 78 184 42z"/>
<path d="M1298 3583 c7 -3 16 -2 19 1 4 3 -2 6 -13 5 -11 0 -14 -3 -6 -6z"/>
<path d="M2443 3423 c9 -2 23 -2 30 0 6 3 -1 5 -18 5 -16 0 -22 -2 -12 -5z"/>
<path d="M2459 3203 c-13 -16 -12 -17 4 -4 9 7 17 15 17 17 0 8 -8 3 -21 -13z"/>
<path d="M3557 1963 c-22 -36 -35 -69 -30 -73 4 -5 25 -13 46 -18 l37 -10 -1
56 c-1 31 -4 69 -8 84 -6 25 -8 23 -44 -39z"/>
<path d="M5600 2037 c-19 -6 -36 -11 -38 -12 -8 -6 24 -95 34 -95 21 0 79 23
97 38 21 19 22 46 1 66 -17 18 -43 19 -94 3z"/>
<path d="M2761 6853 c-6 -21 -11 -45 -11 -53 1 -25 30 20 30 46 0 30 30 41 37
13 4 -14 8 -17 13 -8 14 21 -1 39 -31 39 -24 0 -30 -5 -38 -37z"/>
<path d="M2630 6830 c-17 -11 -13 -17 16 -22 20 -3 24 1 24 22 0 12 -20 13
-40 0z"/>
<path d="M6230 6815 c0 -26 15 -34 23 -12 3 9 7 9 20 -1 9 -8 21 -12 26 -10 6
1 -7 13 -29 26 l-40 23 0 -26z"/>
<path d="M2925 6800 c-3 -5 3 -10 15 -10 12 0 18 5 15 10 -3 6 -10 10 -15 10
-5 0 -12 -4 -15 -10z"/>
<path d="M6872 6648 c2 -6 10 -14 16 -16 7 -2 10 2 6 12 -7 18 -28 22 -22 4z"/>
<path d="M6040 6589 c0 -16 -4 -19 -17 -15 -15 6 -14 4 2 -14 14 -16 20 -17
27 -8 11 18 10 58 -2 58 -5 0 -10 -9 -10 -21z"/>
<path d="M5973 6515 c4 -9 7 -19 7 -21 0 -2 7 -4 15 -4 22 0 18 18 -7 31 -18
10 -20 9 -15 -6z"/>
<path d="M6975 6501 c-3 -5 0 -13 6 -17 7 -4 9 -3 5 4 -3 5 0 13 6 15 9 4 10
6 1 6 -6 1 -14 -3 -18 -8z"/>
<path d="M1842 6195 c0 -16 2 -22 5 -12 2 9 2 23 0 30 -3 6 -5 -1 -5 -18z"/>
<path d="M7257 6173 c-18 -4 -17 -6 4 -29 30 -32 51 -30 72 6 l18 30 -38 -1
c-21 -1 -46 -3 -56 -6z m63 -17 c0 -22 -25 -26 -38 -5 -11 17 -9 19 13 19 15
0 25 -6 25 -14z"/>
<path d="M7121 6124 c0 -11 3 -14 6 -6 3 7 2 16 -1 19 -3 4 -6 -2 -5 -13z"/>
<path d="M1684 6028 c-4 -6 -2 -14 4 -16 7 -2 10 -8 7 -13 -4 -5 1 -6 11 -2
15 5 15 7 0 15 -9 5 -14 13 -11 19 4 5 4 9 1 9 -3 0 -8 -5 -12 -12z"/>
<path d="M6960 6008 c0 -23 3 -29 9 -19 8 12 4 51 -5 51 -2 0 -4 -15 -4 -32z"/>
<path d="M7363 5839 c-2 -23 3 -25 10 -4 4 8 3 16 -1 19 -4 3 -9 -4 -9 -15z"/>
<path d="M5790 5820 c0 -5 5 -10 10 -10 6 0 10 5 10 10 0 6 -4 10 -10 10 -5 0
-10 -4 -10 -10z"/>
<path d="M5820 5791 c0 -25 6 -27 13 -6 4 8 2 17 -3 20 -6 4 -10 -3 -10 -14z"/>
<path d="M7384 5783 c16 -18 32 -31 34 -28 7 7 32 -15 32 -27 0 -6 -8 -4 -17
3 -16 13 -17 12 -4 -3 16 -21 30 -15 28 12 -1 10 -4 17 -8 14 -4 -2 -12 4 -18
13 -8 13 -10 14 -11 4 0 -10 -11 -5 -32 15 l-33 29 29 -32z"/>
<path d="M7140 5797 c0 -1 35 -36 78 -77 l77 -75 -75 78 c-69 71 -80 82 -80
74z"/>
<path d="M7520 5770 c0 -5 5 -10 10 -10 6 0 10 5 10 10 0 6 -4 10 -10 10 -5 0
-10 -4 -10 -10z"/>
<path d="M6900 5711 c0 -20 40 -101 50 -101 14 0 13 12 -10 64 -17 41 -40 62
-40 37z"/>
<path d="M6987 5678 c-7 -19 3 -68 14 -68 16 0 19 19 5 50 -9 21 -15 27 -19
18z"/>
<path d="M6801 5664 c0 -11 3 -14 6 -6 3 7 2 16 -1 19 -3 4 -6 -2 -5 -13z"/>
<path d="M7300 5620 c12 -22 12 -24 -2 -12 -14 11 -15 9 -9 -15 3 -16 11 -36
17 -47 9 -15 15 -16 33 -6 22 11 24 37 3 33 -6 -2 -9 3 -6 10 2 7 -7 24 -22
37 l-27 25 13 -25z"/>
<path d="M7215 5601 c-2 -5 2 -15 11 -22 8 -7 24 -29 35 -48 19 -36 19 -36 13
-6 -11 58 -44 100 -59 76z"/>
<path d="M7531 5594 c8 -10 15 -12 17 -5 2 6 8 9 12 6 5 -3 11 -1 15 5 4 6 -7
10 -26 10 -28 0 -30 -2 -18 -16z"/>
<path d="M7140 5585 c0 -23 73 -115 92 -115 17 0 6 18 -42 69 -27 29 -50 50
-50 46z"/>
<path d="M7372 5375 c3 -31 1 -58 -3 -60 -4 -3 -26 21 -48 52 -29 42 -41 52
-41 37 0 -11 11 -35 25 -54 13 -18 22 -38 18 -44 -3 -6 -3 -8 2 -4 4 4 14 3
22 -4 22 -18 41 9 48 68 4 42 2 53 -11 58 -14 6 -16 -1 -12 -49z"/>
<path d="M7139 5368 c-2 -41 3 -61 17 -76 22 -22 26 -10 13 47 -11 52 -28 69
-30 29z"/>
<path d="M7230 5318 c0 -31 3 -38 20 -38 25 0 26 21 0 51 l-19 24 -1 -37z"/>
<path d="M7510 5253 c0 -4 5 -15 10 -23 8 -13 10 -13 10 2 0 9 -4 20 -10 23
-5 3 -10 3 -10 -2z"/>
<path d="M7529 5172 c-3 -24 -1 -46 3 -48 4 -3 8 -10 8 -15 0 -6 -5 -7 -11 -4
-6 4 -5 -2 3 -14 7 -11 19 -23 26 -26 11 -4 12 4 7 37 -4 23 -13 58 -20 78
l-12 35 -4 -43z"/>
<path d="M7298 5194 c-8 -8 8 -61 27 -90 18 -27 60 -32 69 -8 3 9 6 27 6 40 0
33 15 30 39 -9 11 -18 31 -42 45 -55 l26 -22 0 23 c0 14 -20 42 -53 75 -53 53
-69 62 -66 40 1 -7 1 -30 0 -51 -1 -34 -3 -37 -21 -27 -11 6 -29 29 -40 50
-21 42 -23 44 -32 34z"/>
<path d="M7498 4960 c-3 -30 -1 -50 8 -60 12 -12 14 -9 13 20 -1 19 -4 46 -8
60 -7 22 -8 19 -13 -20z"/>
<path d="M7420 4971 c0 -33 19 -71 35 -71 17 0 20 16 6 25 -5 3 -12 19 -16 35
-7 33 -25 41 -25 11z"/>
<path d="M4551 4426 c-9 -11 -9 -16 1 -22 7 -4 10 -4 6 1 -4 4 -3 14 3 22 6 7
9 13 6 13 -2 0 -10 -6 -16 -14z"/>
<path d="M4495 4350 c-9 -16 -12 -30 -7 -30 4 0 13 14 19 30 6 17 10 30 7 30
-2 0 -10 -13 -19 -30z"/>
<path d="M3097 3729 c7 -7 15 -10 18 -7 3 3 -2 9 -12 12 -14 6 -15 5 -6 -5z"/>
<path d="M1541 2399 l-71 -91 23 -28 c27 -36 33 -36 107 -6 33 14 60 23 60 20
0 -2 -16 -29 -36 -59 -37 -59 -38 -79 -4 -110 18 -16 23 -15 119 36 56 29 101
56 101 59 0 4 -11 17 -24 29 l-24 22 -52 -26 -51 -26 12 23 c6 13 20 35 31 50
19 27 19 28 -3 58 -13 16 -23 30 -23 30 -1 0 -25 -9 -53 -20 -29 -11 -53 -17
-53 -12 0 4 14 24 30 46 l29 39 -20 28 c-11 16 -22 29 -23 29 -2 0 -35 -41
-75 -91z"/>
<path d="M7502 2370 c-18 -24 -21 -37 -16 -71 l7 -42 -40 5 c-36 5 -42 2 -66
-27 l-26 -32 82 -7 c74 -6 85 -10 115 -39 l33 -32 26 30 26 29 -36 31 c-30 25
-39 43 -53 100 -9 39 -20 73 -23 78 -4 4 -17 -6 -29 -23z"/>
<path d="M1841 2045 l-76 -74 27 -27 c32 -32 30 -33 119 68 60 67 61 69 44 88
-10 11 -22 20 -28 20 -5 0 -44 -34 -86 -75z"/>
<path d="M7222 2068 l-22 -22 32 -33 32 -33 -27 -27 -27 -27 -33 32 -33 32
-23 -24 -22 -24 72 -81 c39 -44 74 -81 77 -81 3 0 16 10 29 21 l22 22 -29 37
-29 37 30 22 31 23 29 -28 29 -28 25 24 26 24 -78 78 c-43 43 -80 78 -83 78
-3 0 -16 -10 -28 -22z"/>
<path d="M2022 1877 l-73 -82 68 -62 c64 -59 68 -61 86 -45 17 16 17 18 -22
50 -23 18 -41 37 -41 41 0 4 25 36 55 71 l55 64 -22 23 c-12 13 -24 23 -27 22
-3 0 -39 -37 -79 -82z"/>
<path d="M6886 1771 c-26 -21 -49 -41 -50 -45 -2 -11 118 -175 127 -176 5 0
20 8 33 19 l24 19 -20 25 c-26 33 -25 38 10 72 35 34 38 62 9 99 -30 39 -73
35 -133 -13z m80 -36 c4 -8 0 -22 -7 -31 -11 -13 -14 -13 -27 0 -17 17 -9 46
13 46 9 0 18 -7 21 -15z"/>
<path d="M2285 1659 l-68 -90 23 -17 c79 -58 106 -72 136 -72 60 0 126 97 104
153 -9 24 -47 61 -97 95 l-31 22 -67 -91z m117 -6 c23 -21 23 -40 -2 -80 -22
-36 -58 -44 -80 -18 -10 12 -7 24 21 65 19 27 36 50 38 50 3 0 13 -7 23 -17z"/>
<path d="M6613 1579 c-38 -24 -38 -23 -10 -156 l22 -103 30 18 c19 12 30 27
30 42 0 32 58 68 80 50 12 -10 21 -8 45 7 l31 20 -94 71 c-52 40 -96 72 -98
72 -2 0 -19 -10 -36 -21z m80 -87 c16 -14 16 -16 -4 -30 -24 -17 -27 -15 -35
28 -8 35 -1 36 39 2z"/>
<path d="M2781 1345 c-28 -53 -51 -98 -51 -100 0 -3 36 -23 80 -45 76 -38 80
-39 90 -20 9 17 5 22 -40 45 l-51 26 42 80 c23 44 40 81 38 83 -7 6 -48 26
-52 26 -3 0 -28 -43 -56 -95z"/>
<path d="M6288 1394 c-38 -19 -68 -36 -68 -38 0 -19 93 -196 103 -196 7 0 22
6 32 14 19 14 19 15 2 50 -21 44 -20 43 -3 49 8 3 34 -5 60 -19 44 -23 46 -24
80 -7 l36 17 -41 23 c-23 13 -47 23 -55 23 -17 0 -17 5 -3 31 19 36 -13 89
-54 89 -12 -1 -52 -17 -89 -36z m82 -39 c0 -8 -12 -22 -26 -31 -22 -15 -27
-15 -35 -3 -13 20 -11 27 9 38 25 15 52 13 52 -4z"/>
<path d="M3117 1292 c-10 -15 -87 -195 -84 -197 19 -10 60 -25 62 -23 13 14
84 203 78 209 -14 12 -51 20 -56 11z"/>
<path d="M5961 1248 c-56 -28 -78 -74 -62 -129 14 -45 63 -89 99 -89 36 1 102
32 130 62 22 25 23 26 6 67 -9 22 -20 41 -24 41 -5 0 -29 -9 -55 -20 -35 -15
-45 -24 -41 -36 3 -9 6 -18 6 -20 0 -2 11 -2 25 2 38 9 32 -21 -6 -37 -30 -12
-33 -11 -55 15 -44 50 -25 109 34 108 15 0 39 7 54 16 25 14 25 17 10 28 -25
20 -72 17 -121 -8z"/>
<path d="M3296 1122 c-20 -54 -36 -103 -36 -109 0 -13 47 -26 60 -18 6 4 10
10 10 15 0 5 4 20 10 34 9 25 10 25 51 10 34 -11 44 -12 51 -2 15 24 8 35 -32
47 -23 7 -40 18 -40 27 0 23 22 26 67 10 37 -13 42 -13 47 1 11 27 6 31 -61
54 -38 12 -73 24 -79 26 -7 2 -27 -38 -48 -95z"/>
<path d="M5583 1121 c-33 -21 -46 -48 -45 -95 3 -99 86 -140 183 -90 56 28 62
115 13 174 -22 25 -33 30 -72 30 -29 0 -59 -8 -79 -19z m107 -61 c17 -32 12
-78 -10 -90 -41 -22 -80 15 -80 75 0 52 64 63 90 15z"/>
<path d="M3606 1029 c-14 -54 -26 -104 -26 -112 0 -9 29 -20 90 -34 50 -11 90
-17 90 -12 0 4 3 14 6 22 4 12 -8 18 -51 28 -31 7 -57 15 -59 18 -2 3 0 16 5
28 7 21 10 21 58 8 28 -7 51 -9 51 -5 0 5 3 15 6 23 4 11 -8 18 -45 27 -34 8
-51 17 -51 27 0 16 34 14 98 -3 18 -5 22 -2 22 18 0 22 -8 26 -84 44 l-84 21
-26 -98z"/>
<path d="M5283 1062 c-76 -15 -83 -18 -83 -40 0 -20 4 -23 37 -20 l38 3 14
-82 14 -83 34 0 c39 0 39 1 18 100 -8 40 -13 76 -9 81 3 5 16 9 30 9 19 0 24
5 24 25 0 29 0 29 -117 7z"/>
<path d="M4160 1008 c-1 -7 -6 -56 -13 -110 l-13 -96 33 -4 c32 -4 34 -2 39
34 6 37 8 38 49 38 28 0 47 6 58 18 18 20 22 78 8 100 -17 27 -161 44 -161 20z
m103 -50 c7 -21 -4 -38 -24 -38 -14 0 -19 7 -19 25 0 18 5 25 19 25 11 0 21
-6 24 -12z"/>
<path d="M4885 987 c-54 -46 -40 -164 21 -187 67 -26 157 4 170 55 12 47 -3
108 -31 132 -37 33 -123 32 -160 0z m103 -25 c19 -12 32 -70 22 -96 -11 -29
-43 -38 -69 -19 -28 19 -30 97 -3 112 21 13 33 13 50 3z"/>
<path d="M4490 931 c0 -37 -3 -89 -6 -115 l-7 -46 37 0 36 0 0 45 0 45 40 0
40 0 0 -45 0 -45 36 0 c29 0 35 3 30 16 -3 9 -6 60 -6 115 l0 99 -30 0 c-29 0
-30 -2 -30 -45 l0 -45 -40 0 -40 0 0 45 c0 43 -1 45 -30 45 l-30 0 0 -69z"/>
</g>
</svg>
